<?xml version="1.0" encoding="UTF-8" standalone="no"?>
<!-- Created with Inkscape (http://www.inkscape.org/) -->

<svg
   width="94.293457mm"
   height="81.187164mm"
   viewBox="0 0 94.293455 81.187166"
   version="1.1"
   id="svg1"
   xml:space="preserve"
   inkscape:version="1.3.2 (091e20e, 2023-11-25)"
   sodipodi:docname="image-clip.svg"
   xmlns:inkscape="http://www.inkscape.org/namespaces/inkscape"
   xmlns:sodipodi="http://sodipodi.sourceforge.net/DTD/sodipodi-0.dtd"
   xmlns="http://www.w3.org/2000/svg"
   xmlns:svg="http://www.w3.org/2000/svg"
   xmlns:rdf="http://www.w3.org/1999/02/22-rdf-syntax-ns#"
   xmlns:cc="http://creativecommons.org/ns#"
   xmlns:dc="http://purl.org/dc/elements/1.1/"><title
     id="title1">svgOutput</title><sodipodi:namedview
     id="namedview1"
     pagecolor="#ffffff"
     bordercolor="#000000"
     borderopacity="0.25"
     inkscape:showpageshadow="2"
     inkscape:pageopacity="0.0"
     inkscape:pagecheckerboard="0"
     inkscape:deskcolor="#d1d1d1"
     inkscape:document-units="mm"
     inkscape:zoom="1.0127771"
     inkscape:cx="239.93434"
     inkscape:cy="185.13452"
     inkscape:window-width="1400"
     inkscape:window-height="968"
     inkscape:window-x="44"
     inkscape:window-y="81"
     inkscape:window-maximized="0"
     inkscape:current-layer="layer5"
     showguides="false" /><defs
     id="defs1"><clipPath
       clipPathUnits="userSpaceOnUse"
       id="clipPath26"><path
         style="display:inline;fill:none;stroke:#000000;stroke-width:1;stroke-linecap:round;stroke-dasharray:none"
         d="m 210.25228,69.330652 c 31.36268,0.742283 76.12521,19.809275 75.51219,82.951528 -0.61248,63.0838 -39.95428,138.30461 -86.48826,138.44373 -22.30347,-0.0577 -22.24671,-9.36701 -31.32419,-11.73985 -1.31982,-0.37518 -2.82561,-0.60754 -4.64054,-0.62786 -11.12339,-0.12459 -10.04075,7.38524 -24.28172,10.49859 V 78.598302 c 9.3655,4.739849 11.18639,10.183358 11.18639,10.183358 l 10.33322,0.96325 c 0,0 5.76413,-6.639129 16.33802,-12.360487 0.0925,-0.0499 0.18171,-0.100071 0.27492,-0.14986 1.01593,-0.543766 2.08953,-1.073859 3.19206,-1.593186 0.44898,-0.210608 0.91636,-0.412522 1.37976,-0.617532 0.9603,-0.426947 1.92866,-0.850871 2.94917,-1.247987 1.52403,-0.588499 3.09536,-1.151416 4.75423,-1.65106 0.35744,-0.109017 0.74601,-0.190921 1.1095,-0.295074 1.58681,-0.448398 3.21933,-0.859391 4.92321,-1.201476 0.36841,-0.07555 0.74824,-0.138324 1.12189,-0.208256 1.9739,-0.360807 4.00483,-0.662686 6.12831,-0.848011 0.0677,-0.0062 0.13365,-0.01468 0.20154,-0.02066 2.35397,-0.198165 4.79679,-0.280625 7.3303,-0.22066 z"
         id="path27" /></clipPath><clipPath
       clipPathUnits="userSpaceOnUse"
       id="clipPath27"><path
         style="display:inline;fill:none;stroke:#000000;stroke-width:1;stroke-linecap:round;stroke-dasharray:none"
         d="m 100.94578,71.708285 c 14.87298,-0.0309 25.25612,1.967413 32.58405,4.59145 V 148.5408 H 90.00019 V 72.493767 c 3.517358,-0.491199 7.155609,-0.777608 10.94559,-0.785482 z"
         id="path28" /></clipPath><clipPath
       clipPathUnits="userSpaceOnUse"
       id="clipPath28"><path
         style="display:inline;fill:none;stroke:#000000;stroke-width:1;stroke-linecap:round;stroke-dasharray:none"
         d="M 84.499752,73.475617 V 148.5408 H 28.620474 c 1.584973,-27.08924 12.354719,-50.388747 31.02343,-64.014177 0.734851,-0.527058 1.469091,-1.054857 2.228287,-1.551326 0.310599,-0.207119 0.62017,-0.415576 0.934828,-0.617533 1.399895,-0.880205 2.832209,-1.718902 4.311883,-2.493388 -0.01921,-0.006 -0.0402,-0.01778 -0.05943,-0.02429 5.304973,-2.852208 11.137599,-4.988099 17.440278,-6.36447 z"
         id="path29" /></clipPath><clipPath
       clipPathUnits="userSpaceOnUse"
       id="clipPath29"><path
         style="display:inline;fill:none;stroke:#000000;stroke-width:1;stroke-linecap:round;stroke-dasharray:none"
         d="M 28.427204,154.04073 H 133.52983 v 135.68318 c -2.5175,0.27223 -5.33337,0.45133 -8.64236,0.46715 -52.170069,0.0559 -96.550643,-88.12599 -96.493339,-134.77987 5.29e-4,-0.46071 0.02735,-0.91162 0.03307,-1.37046 z"
         id="path30" /></clipPath></defs><g
     inkscape:groupmode="layer"
     id="layer5"
     inkscape:label="Middle"
     style="display:inline"
     transform="translate(-6.5398175,-25.349739)"><path
       style="color:#000000;display:inline;fill:none;stroke:#000000;stroke-linecap:round;stroke-linejoin:round;-inkscape-stroke:none"
       d="m 51.144904,32.92192 3.74109,0.34862 c 0,0 6.66004,-7.68328 18.04174,-7.4139 11.35475,0.26874 27.645566,7.08506 27.402876,30.04928 -0.24159,22.86025 -14.485446,50.13098 -31.353346,50.13098 -9.27611,0 -7.94467,-4.39482 -12.99511,-4.45139 -5.05044,-0.0566 -2.94138,4.23457 -13.992346,4.25645 -18.8946,0.0374 -34.9707302,-31.90184 -34.9499702,-48.79727 0.0206,-16.81241 9.5212102,-30.26928 26.2668402,-30.30407 15.762926,-0.0328 17.838226,6.1813 17.838226,6.1813 z"
       id="path3" /></g><metadata
     id="metadata1"><rdf:RDF><cc:Work
         rdf:about=""><dc:title>svgOutput</dc:title></cc:Work></rdf:RDF></metadata></svg>
