<?xml version="1.0" encoding="UTF-8" standalone="no"?>
<!-- Created with Inkscape (http://www.inkscape.org/) -->

<svg
   width="101.77313mm"
   height="105.53686mm"
   viewBox="0 0 101.77313 105.53686"
   version="1.1"
   id="svg1"
   xml:space="preserve"
   inkscape:version="1.3.2 (091e20e, 2023-11-25)"
   sodipodi:docname="small-middle.svg"
   xmlns:inkscape="http://www.inkscape.org/namespaces/inkscape"
   xmlns:sodipodi="http://sodipodi.sourceforge.net/DTD/sodipodi-0.dtd"
   xmlns="http://www.w3.org/2000/svg"
   xmlns:svg="http://www.w3.org/2000/svg"><sodipodi:namedview
     id="namedview1"
     pagecolor="#ffffff"
     bordercolor="#000000"
     borderopacity="0.25"
     inkscape:showpageshadow="2"
     inkscape:pageopacity="0.0"
     inkscape:pagecheckerboard="0"
     inkscape:deskcolor="#d1d1d1"
     inkscape:document-units="mm"
     inkscape:zoom="0.41658488"
     inkscape:cx="542.50649"
     inkscape:cy="658.92934"
     inkscape:window-width="1400"
     inkscape:window-height="968"
     inkscape:window-x="0"
     inkscape:window-y="39"
     inkscape:window-maximized="0"
     inkscape:current-layer="layer5"
     showguides="false" /><defs
     id="defs1"><clipPath
       clipPathUnits="userSpaceOnUse"
       id="clipPath26"><path
         style="display:inline;fill:none;stroke:#000000;stroke-width:1;stroke-linecap:round;stroke-dasharray:none"
         d="m 210.25228,69.330652 c 31.36268,0.742283 76.12521,19.809275 75.51219,82.951528 -0.61248,63.0838 -39.95428,138.30461 -86.48826,138.44373 -22.30347,-0.0577 -22.24671,-9.36701 -31.32419,-11.73985 -1.31982,-0.37518 -2.82561,-0.60754 -4.64054,-0.62786 -11.12339,-0.12459 -10.04075,7.38524 -24.28172,10.49859 V 78.598302 c 9.3655,4.739849 11.18639,10.183358 11.18639,10.183358 l 10.33322,0.96325 c 0,0 5.76413,-6.639129 16.33802,-12.360487 0.0925,-0.0499 0.18171,-0.100071 0.27492,-0.14986 1.01593,-0.543766 2.08953,-1.073859 3.19206,-1.593186 0.44898,-0.210608 0.91636,-0.412522 1.37976,-0.617532 0.9603,-0.426947 1.92866,-0.850871 2.94917,-1.247987 1.52403,-0.588499 3.09536,-1.151416 4.75423,-1.65106 0.35744,-0.109017 0.74601,-0.190921 1.1095,-0.295074 1.58681,-0.448398 3.21933,-0.859391 4.92321,-1.201476 0.36841,-0.07555 0.74824,-0.138324 1.12189,-0.208256 1.9739,-0.360807 4.00483,-0.662686 6.12831,-0.848011 0.0677,-0.0062 0.13365,-0.01468 0.20154,-0.02066 2.35397,-0.198165 4.79679,-0.280625 7.3303,-0.22066 z"
         id="path27" /></clipPath><clipPath
       clipPathUnits="userSpaceOnUse"
       id="clipPath27"><path
         style="display:inline;fill:none;stroke:#000000;stroke-width:1;stroke-linecap:round;stroke-dasharray:none"
         d="m 100.94578,71.708285 c 14.87298,-0.0309 25.25612,1.967413 32.58405,4.59145 V 148.5408 H 90.00019 V 72.493767 c 3.517358,-0.491199 7.155609,-0.777608 10.94559,-0.785482 z"
         id="path28" /></clipPath><clipPath
       clipPathUnits="userSpaceOnUse"
       id="clipPath28"><path
         style="display:inline;fill:none;stroke:#000000;stroke-width:1;stroke-linecap:round;stroke-dasharray:none"
         d="M 84.499752,73.475617 V 148.5408 H 28.620474 c 1.584973,-27.08924 12.354719,-50.388747 31.02343,-64.014177 0.734851,-0.527058 1.469091,-1.054857 2.228287,-1.551326 0.310599,-0.207119 0.62017,-0.415576 0.934828,-0.617533 1.399895,-0.880205 2.832209,-1.718902 4.311883,-2.493388 -0.01921,-0.006 -0.0402,-0.01778 -0.05943,-0.02429 5.304973,-2.852208 11.137599,-4.988099 17.440278,-6.36447 z"
         id="path29" /></clipPath><clipPath
       clipPathUnits="userSpaceOnUse"
       id="clipPath29"><path
         style="display:inline;fill:none;stroke:#000000;stroke-width:1;stroke-linecap:round;stroke-dasharray:none"
         d="M 28.427204,154.04073 H 133.52983 v 135.68318 c -2.5175,0.27223 -5.33337,0.45133 -8.64236,0.46715 -52.170069,0.0559 -96.550643,-88.12599 -96.493339,-134.77987 5.29e-4,-0.46071 0.02735,-0.91162 0.03307,-1.37046 z"
         id="path30" /></clipPath></defs><g
     inkscape:groupmode="layer"
     id="layer5"
     inkscape:label="Middle"
     style="display:inline"
     transform="translate(-2,-4.0000003)"><path
       id="path40-4-2"
       style="color:#000000;display:inline;fill:none;stroke:#000000;stroke-linecap:round;stroke-linejoin:round;-inkscape-stroke:none"
       d="m 63.870014,4.5017 c -2.24848,-0.0489 -3.87971,0.94502 -5.65821,2.25391 -1.77849,1.30889 -3.58765,3.10459 -5.29297,5.32812 -1.95302,2.54649 -3.7038,5.71452 -4.9961,9.27149 -0.720086,-1.06389 -1.316286,-2.13405 -2.207006,-3.17578 -3.22298,-3.76936 -7.57343,-7.23934 -12.94141,-8.92774 -10.13083,-3.18646 -21.63832,-2.7064 -28.8515602,1.75 a 3.0003,3.0003 0 0 0 -1.42187,2.625 c 0.0989,4.10276 2.73605,7.53405 5.82812,11.07422 1.9311302,2.21098 4.1170902,4.11988 6.3750002,5.75586 C 7.6658878,36.62436 3.9924978,46.3481 3.9793978,57.04077 c -0.0116,9.40152 4.1874,21.82017 10.8457102,32.355461 6.6583,10.5353 15.97001,19.467369 27.10937,19.445319 5.914146,-0.0117 9.125166,-1.37971 10.992166,-2.72266 0.9335,-0.67147 1.4459,-1.13212 1.72851,-1.29492 0.28262,-0.1628 0.39224,-0.2477 1.23244,-0.23828 1.65224,0.0185 1.39394,0.31639 3.13476,1.63672 1.74083,1.32032 4.78271,2.81445 9.89453,2.81445 10.05068,0 18.503507,-7.79805 24.496087,-17.970699 5.99259,-10.17266 9.730179,-23.088441 9.857429,-35.128911 0.12887,-12.19449 -4.292569,-20.69123 -10.417969,-25.85938 -6.125407,-5.16814 -13.670867,-7.07294 -19.914067,-7.2207 -4.07655,-0.0965 -7.5053,0.77593 -10.42382,1.92188 0.20219,-0.16817 0.31978,-0.41894 0.5332,-0.57618 2.14697,-1.5817 5.07382,-2.31567 5.58594,-2.36523 1.39765,-0.13525 2.68839,-1.30453 3.14062,-2.27148 0.45223,-0.96696 0.50686,-1.785 0.50586,-2.58594 -0.002,-1.60187 -0.37064,-3.21378 -0.94531,-4.85742 -0.57468,-1.64364 -1.3569,-3.27085 -2.44922,-4.6836 -1.09231,-1.41275 -2.63492,-2.88574 -5.01562,-2.9375 z m -0.0648,2.99856 v 5.1e-4 c -3.55977,-0.0774 -12.30269,8.14401 -14.40739,19.62154 0.0845,0.0504 0.18341,0.098 0.2651,0.14883 1.50999,0.9399 2.50434,1.94357 3.16415,2.7988 l 0.90641,0.0842 c 0.71298,-0.66567 1.8252,-1.58569 3.23391,-2.54403 2.06146,-6.38093 9.20129,-8.5474 11.37863,-8.75812 2.60665,-0.25225 -0.67288,-11.26767 -4.54081,-11.35176 z m -44.622596,2.79259 c -5.37182,0.0685 -10.3395802,1.19694 -13.6818502,3.26182 0.094,3.89981 6.1484702,11.33404 11.5553702,15.04301 4.44757,-3.06373 9.93799,-4.84458 16.18506,-4.85759 6.55363,-0.0136 11.0623,1.00659 14.201196,2.3859 -2.685286,-5.34868 -8.212616,-11.6982 -15.567526,-14.01154 -4.09145,-1.2869 -8.51416,-1.87488 -12.69225,-1.8216 z m 31.962286,22.62907 3.74109,0.34862 c 0,0 6.66004,-7.68328 18.04174,-7.4139 11.35475,0.26874 27.645566,7.08506 27.402876,30.04928 -0.24159,22.86025 -14.485446,50.13098 -31.353346,50.13098 -9.27611,0 -7.94467,-4.39482 -12.99511,-4.45139 -5.05044,-0.0566 -2.94138,4.23457 -13.992346,4.25645 -18.8946,0.0374 -34.9707302,-31.90184 -34.9499702,-48.79727 0.0206,-16.81241 9.5212102,-30.26928 26.2668402,-30.30407 15.762926,-0.0328 17.838226,6.1813 17.838226,6.1813 z"
       inkscape:label="middle" /></g></svg>
