<?xml version="1.0" encoding="UTF-8" standalone="no"?>
<svg
   width="27mm"
   height="26.92399978637695mm"
   viewBox="-12 17.576000213623043 27 26.92399978637695"
   version="1.1"
   id="svg1"
   sodipodi:docname="stand.svg"
   inkscape:version="1.3.2 (091e20e, 2023-11-25)"
   xmlns:inkscape="http://www.inkscape.org/namespaces/inkscape"
   xmlns:sodipodi="http://sodipodi.sourceforge.net/DTD/sodipodi-0.dtd"
   xmlns="http://www.w3.org/2000/svg"
   xmlns:svg="http://www.w3.org/2000/svg"
   xmlns:rdf="http://www.w3.org/1999/02/22-rdf-syntax-ns#"
   xmlns:cc="http://creativecommons.org/ns#"
   xmlns:dc="http://purl.org/dc/elements/1.1/">
  <defs
     id="defs1" />
  <sodipodi:namedview
     id="namedview1"
     pagecolor="#ffffff"
     bordercolor="#000000"
     borderopacity="0.25"
     inkscape:showpageshadow="2"
     inkscape:pageopacity="0.0"
     inkscape:pagecheckerboard="0"
     inkscape:deskcolor="#d1d1d1"
     inkscape:document-units="mm"
     inkscape:zoom="2.3191824"
     inkscape:cx="50.88"
     inkscape:cy="50.88"
     inkscape:window-width="1312"
     inkscape:window-height="449"
     inkscape:window-x="0"
     inkscape:window-y="39"
     inkscape:window-maximized="0"
     inkscape:current-layer="svg1" />
  <title
     id="title1">svgOutput</title>
  <desc
     id="desc1">made with tinkercad</desc>
  <path
     d="M -9.456999778747559 43.31000137329101 L -9.600427627563477 43.24185562133788 L -9.654000282287598 43.21699905395507 L -9.659684181213379 43.21370315551757 L -9.678000450134277 43.20500183105468 L -9.791422843933105 43.13726806640624 L -9.866000175476074 43.094001770019524 L -9.876006126403809 43.0867576599121 L -9.888999938964844 43.07899856567382 L -9.961790084838867 43.02468490600585 L -9.984847068786621 43.00799942016601 L -10.0649995803833 42.950000762939446 L -10.081122398376465 42.93563842773437 L -10.086000442504883 42.93199920654296 L -10.153855323791504 42.870857238769524 L -10.239999771118164 42.79412460327148 L -10.248000144958496 42.78699874877929 L -10.253533363342285 42.78103637695312 L -10.267999649047852 42.76800155639648 L -10.36952018737793 42.656021118164055 L -10.414999961853027 42.60699844360351 L -10.420392990112305 42.59990692138671 L -10.432999610900879 42.58599853515624 L -10.512042045593262 42.4793472290039 L -10.564000129699707 42.410999298095696 L -10.570209503173828 42.400859832763665 L -10.579000473022461 42.38899993896484 L -10.63863468170166 42.28913497924804 L -10.692000389099121 42.20199966430663 L -10.697846412658691 42.18997955322265 L -10.704999923706055 42.17800140380859 L -10.761051177978516 42.0600242614746 L -10.798999786376953 41.98199844360351 L -10.80207347869873 41.973682403564446 L -10.8100004196167 41.95700073242187 L -10.852851867675781 41.836284637451165 L -10.883999824523926 41.75199890136718 L -10.887604713439941 41.7383804321289 L -10.892000198364258 41.726001739501946 L -10.914353370666504 41.63733291625976 L -10.946999549865723 41.51399993896484 L -10.949567794799805 41.49765014648437 L -10.95199966430664 41.48799896240234 L -10.967309951782227 41.38465499877929 L -10.984999656677246 41.27199935913085 L -10.98570442199707 41.26049423217773 L -10.98799991607666 41.24499893188476 L -10.993388175964355 41.134998321533196 L -11 41.02700042724609 L -10.999433517456055 41.01156997680663 L -11 40.99999999999999 L -10.998041152954102 40.95999908447265 L -10.99603271484375 40.91899871826171 L -10.991000175476074 40.78200149536132 L -9.246999740600586 20.85799980163574 L -9.21399974822998 20.61499977111816 L -9.156999588012695 20.37599945068359 L -9.07699966430664 20.14500045776367 L -8.975000381469727 19.922000885009762 L -8.85099983215332 19.709999084472653 L -8.706999778747559 19.510999679565426 L -8.543999671936035 19.32799911499023 L -8.36400032043457 19.1609992980957 L -8.192000389099121 19.030456542968746 L -8.168999671936035 19.013000488281246 L -7.959000110626221 18.88400077819824 L -7.738999843597412 18.77700042724609 L -7.508999824523926 18.6919994354248 L -7.270999908447266 18.629999160766598 L -7.0289998054504395 18.59099960327148 L -6.783999919891357 18.576000213623043 L -6.539000034332275 18.58600044250488 L -6.296000003814697 18.61899948120117 L -6.144000053405762 18.655250549316403 L -6.057000160217285 18.67600059509277 L -5.826000213623047 18.756000518798825 L -5.603000164031982 18.858999252319332 L -5.390999794006348 18.982000350952145 L -5.191999912261963 19.12599945068359 L -5.008999824523926 19.288999557495114 L -4.8420000076293945 19.468999862670895 L -4.693999767303467 19.66500091552734 L -4.565000057220459 19.874000549316403 L -4.458000183105469 20.093999862670895 L -4.373000144958496 20.323999404907223 L -4.310999870300293 20.5620002746582 L -4.271999835968018 20.804000854492184 L -4.256999969482422 21.04899978637695 L -4.267000198364258 21.294000625610348 L -5.772222518920898 38.49999999999999 L 11.5 38.49999999999999 L 11.744999885559082 38.51200103759765 L 11.98799991607666 38.54800033569335 L 12.22599983215332 38.60699844360351 L 12.456999778747559 38.68999862670898 L 12.678000450134277 38.794998168945305 L 12.888999938964844 38.921001434326165 L 13.086000442504883 39.06700134277343 L 13.267999649047852 39.23199844360351 L 13.432999610900879 39.41400146484374 L 13.579000473022461 39.61100006103515 L 13.704999923706055 39.820999145507805 L 13.8100004196167 40.04299926757812 L 13.892000198364258 40.27399826049804 L 13.95199966430664 40.51200103759765 L 13.98799991607666 40.75500106811523 L 13.998041152954102 40.95999908447265 L 14 40.99999999999999 L 13.98799991607666 41.24499893188476 L 13.95199966430664 41.48799896240234 L 13.892000198364258 41.726001739501946 L 13.8100004196167 41.95700073242187 L 13.704999923706055 42.17800140380859 L 13.579000473022461 42.38899993896484 L 13.432999610900879 42.58599853515624 L 13.267999649047852 42.76800155639648 L 13.086000442504883 42.93199920654296 L 12.984149932861328 43.00799942016601 L 12.888999938964844 43.07899856567382 L 12.678000450134277 43.20500183105468 L 12.456999778747559 43.31000137329101 L 12.22599983215332 43.39199829101562 L 11.98799991607666 43.45199966430663 L 11.744999885559082 43.48799896240234 L 11.5 43.49999999999999 L -6.010000228881836 43.49999999999999 L -8.192000389099121 43.49999999999999 L -8.321077346801758 43.49999999999999 L -8.472999572753906 43.49999999999999 L -8.5 43.49999999999999 L -8.635000228881836 43.493389129638665 L -8.718000411987305 43.49000167846679 L -8.72580337524414 43.488941192626946 L -8.744999885559082 43.48799896240234 L -8.880000114440918 43.467998504638665 L -8.961000442504883 43.45700073242187 L -8.972068786621094 43.454360961914055 L -8.98799991607666 43.45199966430663 L -9.093777656555176 43.425334930419915 L -9.199999809265137 43.4000015258789 L -9.215587615966797 43.39462661743163 L -9.22599983215332 43.39199829101562 L -9.246999740600586 43.38454437255859 L -9.321117401123047 43.35823440551757 L -9.432000160217285 43.31999969482421 L -9.442327499389648 43.31520843505859 L -9.456999778747559 43.31000137329101 z"
     fill="none"
     stroke="rgb(255,0,0)"
     stroke-width="0.001mm"
     id="path1"
     style="stroke:#000000;stroke-width:0.5;stroke-dasharray:none" />
  <metadata
     id="metadata1">
    <rdf:RDF>
      <cc:Work
         rdf:about="">
        <dc:title>svgOutput</dc:title>
      </cc:Work>
    </rdf:RDF>
  </metadata>
</svg>
