<?xml version="1.0" encoding="UTF-8" standalone="no"?>
<!-- Created with Inkscape (http://www.inkscape.org/) -->

<svg
   width="100.29385mm"
   height="87.187523mm"
   viewBox="0 0 100.29385 87.187523"
   version="1.1"
   id="svg1"
   xml:space="preserve"
   inkscape:version="1.3.2 (091e20e, 2023-11-25)"
   sodipodi:docname="small-front.svg"
   xmlns:inkscape="http://www.inkscape.org/namespaces/inkscape"
   xmlns:sodipodi="http://sodipodi.sourceforge.net/DTD/sodipodi-0.dtd"
   xmlns="http://www.w3.org/2000/svg"
   xmlns:svg="http://www.w3.org/2000/svg"><sodipodi:namedview
     id="namedview1"
     pagecolor="#ffffff"
     bordercolor="#000000"
     borderopacity="0.25"
     inkscape:showpageshadow="2"
     inkscape:pageopacity="0.0"
     inkscape:pagecheckerboard="0"
     inkscape:deskcolor="#d1d1d1"
     inkscape:document-units="mm"
     inkscape:zoom="0.41658488"
     inkscape:cx="532.9046"
     inkscape:cy="636.12486"
     inkscape:window-width="1312"
     inkscape:window-height="953"
     inkscape:window-x="0"
     inkscape:window-y="39"
     inkscape:window-maximized="0"
     inkscape:current-layer="layer4"
     showguides="false" /><defs
     id="defs1"><clipPath
       clipPathUnits="userSpaceOnUse"
       id="clipPath26"><path
         style="display:inline;fill:none;stroke:#000000;stroke-width:1;stroke-linecap:round;stroke-dasharray:none"
         d="m 210.25228,69.330652 c 31.36268,0.742283 76.12521,19.809275 75.51219,82.951528 -0.61248,63.0838 -39.95428,138.30461 -86.48826,138.44373 -22.30347,-0.0577 -22.24671,-9.36701 -31.32419,-11.73985 -1.31982,-0.37518 -2.82561,-0.60754 -4.64054,-0.62786 -11.12339,-0.12459 -10.04075,7.38524 -24.28172,10.49859 V 78.598302 c 9.3655,4.739849 11.18639,10.183358 11.18639,10.183358 l 10.33322,0.96325 c 0,0 5.76413,-6.639129 16.33802,-12.360487 0.0925,-0.0499 0.18171,-0.100071 0.27492,-0.14986 1.01593,-0.543766 2.08953,-1.073859 3.19206,-1.593186 0.44898,-0.210608 0.91636,-0.412522 1.37976,-0.617532 0.9603,-0.426947 1.92866,-0.850871 2.94917,-1.247987 1.52403,-0.588499 3.09536,-1.151416 4.75423,-1.65106 0.35744,-0.109017 0.74601,-0.190921 1.1095,-0.295074 1.58681,-0.448398 3.21933,-0.859391 4.92321,-1.201476 0.36841,-0.07555 0.74824,-0.138324 1.12189,-0.208256 1.9739,-0.360807 4.00483,-0.662686 6.12831,-0.848011 0.0677,-0.0062 0.13365,-0.01468 0.20154,-0.02066 2.35397,-0.198165 4.79679,-0.280625 7.3303,-0.22066 z"
         id="path27" /></clipPath><clipPath
       clipPathUnits="userSpaceOnUse"
       id="clipPath27"><path
         style="display:inline;fill:none;stroke:#000000;stroke-width:1;stroke-linecap:round;stroke-dasharray:none"
         d="m 100.94578,71.708285 c 14.87298,-0.0309 25.25612,1.967413 32.58405,4.59145 V 148.5408 H 90.00019 V 72.493767 c 3.517358,-0.491199 7.155609,-0.777608 10.94559,-0.785482 z"
         id="path28" /></clipPath><clipPath
       clipPathUnits="userSpaceOnUse"
       id="clipPath28"><path
         style="display:inline;fill:none;stroke:#000000;stroke-width:1;stroke-linecap:round;stroke-dasharray:none"
         d="M 84.499752,73.475617 V 148.5408 H 28.620474 c 1.584973,-27.08924 12.354719,-50.388747 31.02343,-64.014177 0.734851,-0.527058 1.469091,-1.054857 2.228287,-1.551326 0.310599,-0.207119 0.62017,-0.415576 0.934828,-0.617533 1.399895,-0.880205 2.832209,-1.718902 4.311883,-2.493388 -0.01921,-0.006 -0.0402,-0.01778 -0.05943,-0.02429 5.304973,-2.852208 11.137599,-4.988099 17.440278,-6.36447 z"
         id="path29" /></clipPath><clipPath
       clipPathUnits="userSpaceOnUse"
       id="clipPath29"><path
         style="display:inline;fill:none;stroke:#000000;stroke-width:1;stroke-linecap:round;stroke-dasharray:none"
         d="M 28.427204,154.04073 H 133.52983 v 135.68318 c -2.5175,0.27223 -5.33337,0.45133 -8.64236,0.46715 -52.170069,0.0559 -96.550643,-88.12599 -96.493339,-134.77987 5.29e-4,-0.46071 0.02735,-0.91162 0.03307,-1.37046 z"
         id="path30" /></clipPath></defs><g
     inkscape:groupmode="layer"
     id="layer4"
     inkscape:label="Front"
     style="display:inline"
     transform="translate(-2.0000002,-4)"><path
       style="color:#000000;display:inline;fill:none;stroke:#000000;stroke-linecap:round;stroke-linejoin:round;-inkscape-stroke:none"
       d="m 71.459065,4.5078542 c -10.064898,-0.23822 -16.755833,5.00825 -19.207054,7.2968698 l -0.906251,-0.084 c -0.659851,-0.85489 -1.655041,-1.8595198 -3.164062,-2.7988298 -3.094183,-1.92601 -8.145926,-3.54847 -16.421882,-3.53125 -9.175237,0.0191 -16.722013,3.8451 -21.720726,9.9609398 -4.9987042,6.11584 -7.528076,14.36953 -7.539066,23.33984 -0.0115,9.40154 4.187363,21.81829 10.845708,32.35352 6.658355,10.53522 15.970042,19.46931 27.1094,19.44726 5.914164,-0.0117 9.125217,-1.37974 10.992198,-2.72265 0.933491,-0.67146 1.447861,-1.13409 1.730471,-1.29688 0.2826,-0.16279 0.390271,-0.24769 1.230461,-0.23828 1.652251,0.0185 1.393941,0.31835 3.134772,1.63867 1.740832,1.32032 4.782704,2.81446 9.894538,2.81446 10.050667,0 18.503464,-7.79813 24.496109,-17.97071 5.992654,-10.17257 9.730179,-23.08842 9.857429,-35.1289 0.12887,-12.19452 -4.292475,-20.69308 -10.41797,-25.86133 C 85.247644,6.5583342 77.702309,4.6555942 71.459065,4.5078342 Z m -0.14258,5.9980498 c 5.111493,0.12097 11.389581,1.75849 16.187512,5.80664 4.797924,4.04814 8.400927,10.44125 8.287116,21.21093 -0.11435,10.81974 -3.620702,22.97061 -9.027356,32.14844 -5.406648,9.17784 -12.50896,15.01563 -19.326185,15.01563 -4.164273,0 -5.094454,-0.70448 -6.269535,-1.59571 -1.175081,-0.89123 -3.293222,-2.8174 -6.691415,-2.85547 -1.685021,-0.0189 -3.207192,0.41055 -4.294923,1.03711 -1.087721,0.62657 -1.684411,1.22801 -2.236332,1.625 -1.10383,0.79399 -2.365151,1.58358 -7.501955,1.59375 -7.755236,0.0153 -15.927232,-7.00346 -22.025406,-16.65234 -6.098175,-9.64888 -9.9271876,-21.64675 -9.9179776,-29.14063 0.01,-7.84208 2.2404416,-14.72444 6.1836046,-19.54882 3.943153,-4.82439 9.519457,-7.74404 17.089853,-7.75977 7.486965,-0.0156 11.354088,1.45216 13.238289,2.625 0.942101,0.58642 1.406811,1.10068 1.630862,1.39649 0.22405,0.29581 0.11719,0.10937 0.11719,0.10937 a 3.0003022,3.0003 0 0 0 2.566401,2.03711 l 3.742193,0.34961 a 3.0003022,3.0003 0 0 0 2.544922,-1.02344 c 0,0 5.698094,-6.6157 15.703142,-6.3789 z"
       id="path1-5-5-9"
       inkscape:label="front" /></g></svg>
